<?xml version="1.0" encoding="UTF-8" standalone="no"?>
<svg
   viewBox="0 0 2560 1600"
   version="1.1"
   id="svg2"
   width="2560"
   height="1600"
   xml:space="preserve"
   xmlns="http://www.w3.org/2000/svg"
   xmlns:svg="http://www.w3.org/2000/svg"><defs
     id="defs2" /><path
     fill="#7EBAE4"
     d="m 1183.6248,652.17859 -219.4157,382.38541 -51.22393,-87.38146 59.12674,-102.41337 -117.43286,-0.305 -25.03076,-43.66529 25.56107,-44.66016 167.16034,0.53011 60.071,-104.22157 z m 16.8374,305.67881 438.7949,0.0218 -49.5894,88.3328 -117.7089,-0.3268 58.4513,102.5005 -25.0598,43.6434 -51.2094,0.058 -83.1335,-145.9405 -119.7282,-0.2469 z m 255.3929,-167.5591 -219.3794,-382.40716 100.8206,-0.95129 58.5676,102.74014 58.9815,-102.18825 50.0979,0.0144 25.6556,44.60933 -84.0415,145.41058 59.657,104.46847 z"
     clip-rule="evenodd"
     fill-rule="evenodd"
     id="path1"
     style="fill:#7dcfff;stroke-width:7.26277" /><path
     fill="#5277C3"
     d="m 1104.4428,809.70187 219.3794,382.40723 -100.8208,0.9511 -58.5674,-102.74 -58.9816,102.1883 -50.098,-0.014 -25.6556,-44.6095 84.0415,-145.4106 -59.6571,-104.46842 z m 254.8118,-168.52494 -438.79501,-0.0218 49.59673,-88.32546 117.70158,0.3268 -58.4513,-102.50053 25.0598,-43.6435 51.2168,-0.0727 83.1262,145.94069 119.7353,0.24688 50.8173,88.04225 z m 17.1206,306.56476 219.4157,-382.39262 51.2239,87.38868 -59.1341,102.4061 117.4401,0.31227 25.0309,43.66528 -25.5611,44.66017 -167.1605,-0.53012 -60.071,104.22156 z"
     clip-rule="evenodd"
     fill-rule="evenodd"
     id="path2"
     style="fill:#7199ee;stroke-width:7.26277" /><path
     style="fill:#bb9af7;fill-opacity:1;fill-rule:evenodd;stroke-width:1.19665"
     d="m 1396.4741,901.14659 c 1.4235,0.53534 1.31,2.49029 1.8103,3.70984 1.286,4.52566 1.4396,9.41703 3.5388,13.68217 2.4269,3.76559 7.2267,5.15527 9.5979,9.00423 1.7121,2.23689 2.377,5.33796 4.7228,7.04296 2.9386,1.22138 6.2693,0.63382 9.3689,0.93626 2.8079,0.26982 6.2836,-0.19221 8.3955,2.07319 1.2518,2.20515 -0.3414,4.80534 -1.666,6.59146 -3.0237,3.6212 -7.0747,6.50146 -11.568,7.97777 -2.9577,0.95764 -6.3128,0.60209 -9.0651,2.12914 -2.9666,2.17114 -5.3033,5.62326 -9.2227,6.10429 -6.8439,0.93226 -13.7796,0.1168 -20.6254,-0.40856 -4.1354,-0.42625 -8.4357,-1.26598 -12.5321,-0.21996 -2.4984,0.9194 -3.8841,3.64691 -3.5485,6.23018 -0.3073,3.63106 1.0668,7.06353 2.631,10.25623 2.8083,5.90918 5.2422,12.08616 5.9465,18.64151 1.1989,8.1742 1.5273,16.4393 3.2742,24.4817 1.4925,3.7249 3.18,7.4927 3.7032,11.5048 0.5171,3.5911 -2.1671,7.1932 -5.7628,7.6801 -3.3064,0.6781 -6.5732,-1.3005 -8.1212,-4.1732 -3.1687,-5.1399 -2.2234,-11.4472 -3.4631,-17.1244 -2.8768,-12.3765 -9.6229,-23.36306 -16.1706,-34.12485 -2.8255,-4.88195 -5.78,-9.78862 -7.591,-15.15455 -0.5808,-2.21918 -0.3551,-4.53814 -0.4061,-6.8042 -14.1655,-0.35053 -28.3313,-0.33054 -42.4438,0.85262 -12.8893,0.68735 -25.7099,-0.79203 -38.578,-0.94382 -9.7909,-0.0563 -19.4985,-1.1249 -29.2663,-1.54786 -4.5444,-0.28023 -9.1901,-1.14201 -13.2952,-2.99836 -0.6391,11.10235 -3.8454,22.59223 -11.5749,30.89785 -3.8385,4.26295 -9.1423,7.13718 -14.7635,8.1927 -4.1899,0.21957 -8.5444,0.50165 -12.6103,-0.74349 -5.6369,-1.80739 -10.4567,-6.03838 -12.661,-11.5712 -3.1106,-7.27717 -2.4644,-15.40536 -1.78,-23.08773 0.179,-3.78863 4.3888,-6.87847 7.9995,-5.3682 3.4098,1.2064 4.0705,5.41602 3.3445,8.52505 -0.9819,4.46501 -2.4661,9.53518 -0.1098,13.82999 1.5625,2.86849 4.8851,4.37708 8.092,4.11068 7.0637,0.0548 13.1694,-5.09238 16.1412,-11.21277 3.3652,-6.42006 4.0923,-13.96954 5.0823,-21.16476 1.6009,-10.25672 4.6499,-21.02913 12.4135,-28.39322 4.3469,-3.97495 10.0867,-5.85978 15.0975,-8.81271 4.0533,-2.18248 8.2031,-4.54669 12.9021,-4.86312 8.2893,-0.59287 16.6235,-0.047 24.8743,-0.95959 7.3872,-1.44366 14.7864,0.77026 22.0546,1.89431 6.1256,1.228 12.3391,2.20594 18.5912,2.03467 8.4315,0.12928 16.8866,-0.18782 25.3024,0.39668 11.7767,1.67847 23.8983,3.75813 34.2308,10.01496 1.8964,1.03534 3.7088,2.5169 5.2367,3.86186 2.8673,-2.44643 6.5179,-4.02092 8.9541,-6.93973 3.5283,-5.18656 5.5542,-11.88111 11.3149,-15.14642 0.6844,-0.37218 1.3865,-0.92641 2.2047,-0.8945 z"
     id="path4" /><path
     style="fill:#0db9d7;stroke:none;stroke-width:0.795159"
     d="m 1256.4023,395.71441 c -1.766,-1.17238 -5.4397,-4.07174 -7.6866,-2.58426 -2.3855,1.57924 -0.094,5.83027 -2.1204,7.88534 -1.7493,1.77369 -5.4776,1.7174 -7.6865,2.98184 -4.4483,2.54634 -5.3782,7.29976 -8.813,10.73462 -2.5219,2.5219 -5.5545,3.09109 -5.4778,7.22268 0.091,4.88462 2.1929,10.83115 7.1343,12.41331 4.7201,1.5113 15.3409,-0.0255 14.7326,7.46566 -0.9692,11.9345 -14.0447,16.28855 -21.889,23.2363 -15.1334,13.40383 -19.0954,33.50676 -22.7503,52.30376 -1.5612,8.02854 -2.9004,21.46491 -12.2367,24.27441 -3.3653,1.01273 -7.2585,-0.38309 -10.337,-1.72284 -8.7143,-3.79231 -15.7356,-12.26871 -17.3168,-21.75642 -3.1034,-18.62018 13.2878,-33.10178 30.8345,-33.39665 -1.4696,-8.29255 -14.3998,-8.21551 -20.6741,-6.00787 -11.5818,4.07505 -20.1769,17.02849 -21.4031,29.06746 -0.5178,5.08386 -0.4736,10.97122 0.8394,15.90317 1.0346,3.88683 2.4721,7.67968 4.55,11.13222 11.0525,18.36405 30.3626,19.08381 49.4103,19.08381 h 29.4209 30.216 c 2.7033,0 8.8492,0.987 10.5359,-1.83327 1.629,-2.72375 -2.2809,-5.19778 -4.1746,-6.25084 -5.5079,-3.06277 -12.8768,-3.81718 -19.0838,-3.84327 v -0.79516 c 10.9064,-2.65786 17.1697,-11.81414 25.445,-18.28865 0,8.7008 -0.4798,19.78496 3.512,27.80847 2.131,4.28344 10.952,4.9083 12.7888,0.0221 1.5952,-4.24362 -1.0887,-7.39504 -2.4296,-11.13222 -1.472,-4.10263 -1.1486,-8.4432 -1.1486,-12.72256 v -47.70951 c 0,-8.42342 1.1522,-16.20773 -0.1767,-24.64992 -1.0211,-6.48657 -5.6975,-10.92291 -8.3713,-16.69833 -5.4515,-11.77532 -9.6815,-24.17822 -15.4835,-35.78212 -1.5377,-3.07547 -2.9862,-7.07538 -5.5661,-9.45355 -2.988,-2.75432 -4.3943,0.30505 -4.5942,3.09228 z"
     id="path1-3" /></svg>
