<?xml version="1.0" encoding="UTF-8" standalone="no"?>
<!-- Created with Inkscape (http://www.inkscape.org/) -->

<svg
   version="1.1"
   id="svg1"
   width="183.57149"
   height="183.42863"
   viewBox="0 0 183.57149 183.42864"
   xmlns="http://www.w3.org/2000/svg"
   xmlns:svg="http://www.w3.org/2000/svg">
  <defs
     id="defs1" />
  <g
     id="g1"
     transform="translate(-23.908347,-4.2581018)">
    <path
       style="fill:none;fill-opacity:0.92718;fill-rule:evenodd;stroke:#313244;stroke-width:1;stroke-dasharray:none;stroke-opacity:1"
       d="m 79.197948,39.120545 c -0.131836,-0.504285 -0.31318,-0.877048 -0.605349,-1.108767 -0.29217,-0.231719 -0.69515,-0.322389 -3.429814,3.074833 -2.734665,3.397222 -7.800804,10.282062 -11.971928,16.5118 -4.171124,6.229737 -7.447001,11.804011 -9.454844,15.291319 -2.007843,3.487307 -2.747557,4.88748 -3.117422,6.816084 -0.369864,1.928603 -0.369864,4.385511 -0.05283,5.970651 0.317033,1.585141 0.951074,2.298436 2.496603,3.14385 1.54553,0.845415 4.002438,1.822894 8.374827,0.158461 4.372389,-1.664433 10.659959,-5.970626 16.683524,-11.161998 6.023564,-5.191373 11.782766,-11.267596 14.569957,-14.68885 2.787191,-3.421254 2.602262,-4.187386 2.113505,-4.847864 -0.488757,-0.660478 -1.281308,-1.215263 -2.826836,-0.21132 -1.545528,1.003944 -3.843926,3.566525 -6.974603,6.22165 -3.130678,2.655126 -7.093432,5.402635 -10.025948,7.370855 -2.932516,1.968219 -4.834638,3.157045 -7.080269,3.77789 -2.245632,0.620845 -4.834631,0.673681 -6.459399,0.06603 -1.624769,-0.607647 -2.285228,-1.875729 -1.334122,-4.755432 0.951105,-2.879704 3.513687,-7.370826 7.014234,-12.615035 3.500547,-5.24421 7.938832,-11.241177 10.116854,-14.557631 2.178022,-3.316453 2.095696,-3.952246 1.963861,-4.45653 z"
       id="path16534"
       transform="translate(-5.2782046,-1.6728098)" />
    <path
       style="fill:none;fill-opacity:0.92718;fill-rule:evenodd;stroke:#313244;stroke-width:1;stroke-dasharray:none;stroke-opacity:1"
       d="m 96.308563,61.099769 c 0.184214,-2.905995 4.215087,-7.07117 6.471767,-9.030704 2.25669,-1.959533 2.73903,-1.713292 4.25219,-0.36885 1.51315,1.344442 4.057,3.786976 5.70561,8.148295 1.64862,4.361318 2.4019,10.640996 2.15493,16.107627 -0.24696,5.466631 -1.49415,10.119554 -2.85816,13.084565 -1.36401,2.965011 -2.84468,4.241749 -3.93068,4.770701 -1.08601,0.528953 -1.7772,0.310045 -1.93875,-2.100331 -0.16155,-2.410376 0.20656,-7.011929 -0.15784,-11.445898 -0.36441,-4.433969 -1.4613,-8.699819 -3.84107,-11.65626 -2.37977,-2.956442 -6.04221,-4.60315 -5.857997,-7.509145 z"
       id="path16535"
       transform="translate(-5.2782046,-1.6728098)" />
    <path
       style="fill:none;fill-opacity:0.92718;fill-rule:evenodd;stroke:#313244;stroke-width:1;stroke-dasharray:none;stroke-opacity:1"
       d="m 155.78522,41.899419 c 0.82743,0.873115 2.31982,2.467025 3.88842,3.137104 1.5686,0.67008 3.21327,0.416273 4.85799,-0.03552 1.64472,-0.451793 3.28937,-1.101529 5.28438,-3.284361 1.995,-2.182833 4.34014,-5.898511 5.82751,-8.00012 1.48737,-2.101608 2.1168,-2.588908 2.45693,-2.330014 0.34012,0.258894 0.39088,1.26395 -0.0609,3.111745 -0.4518,1.847795 -1.40609,4.538101 -2.81732,7.700671 -1.41123,3.162571 -3.27922,6.797027 -5.65495,9.741315 -2.37574,2.944287 -5.25892,5.198045 -7.6499,6.502674 -2.39097,1.30463 -4.28941,1.659953 -6.19304,1.395982 -1.90363,-0.263971 -3.81227,-1.147224 -4.96966,-2.279243 -1.15739,-1.132018 -1.56348,-2.512732 -0.79187,-5.360554 0.77161,-2.847823 2.72085,-7.162556 3.77671,-9.243819 1.05586,-2.081262 1.21829,-1.928976 2.04571,-1.055861 z"
       id="path16536"
       transform="translate(-5.2782046,-1.6728098)" />
    <path
       style="fill:none;fill-opacity:0.92718;fill-rule:evenodd;stroke:#313244;stroke-width:1;stroke-dasharray:none;stroke-opacity:1"
       d="m 181.52546,27.204024 c 1.2224,-2.901876 3.63121,-7.773013 6.09704,-11.571384 2.46584,-3.79837 4.98856,-6.5238134 7.2902,-7.9645164 2.30164,-1.4407029 4.38196,-1.5964938 6.99455,-0.6708796 2.61258,0.9256143 5.7572,2.9325211 7.98611,6.505302 2.22892,3.57278 3.54187,8.711012 0.92837,21.490372 -2.61351,12.779361 -9.15315,33.198313 -13.49023,48.4584 -4.33708,15.260087 -6.47111,25.359672 -8.26403,33.467082 -1.79292,8.10741 -3.24464,14.22219 -4.73118,17.78218 -1.48655,3.55998 -3.0078,4.56499 -3.01948,0.0613 -0.0117,-4.50367 1.48621,-14.51548 3.52268,-23.83861 2.03648,-9.32313 4.61133,-17.956653 7.59252,-28.696479 2.98118,-10.739827 6.36851,-23.585278 8.28217,-31.59188 1.91366,-8.006602 2.35358,-11.173974 2.35688,-14.07631 0.003,-2.902335 -0.42998,-5.539415 -1.1252,-7.575877 -0.69522,-2.036461 -1.65231,-3.472096 -2.76683,-4.724573 -1.11453,-1.252478 -2.38638,-2.321692 -4.03805,-2.705647 -1.65167,-0.383954 -3.68293,-0.08259 -4.95202,0.801771 -1.26909,0.884365 -1.77584,2.351652 -2.29698,4.009065 -0.52113,1.657413 -1.0566,3.504805 -1.72439,4.838408 -0.66779,1.333602 -1.46781,2.153231 -2.21346,2.512414 -0.74564,0.359184 -1.43682,0.257864 -2.04826,-0.109398 -0.61145,-0.367263 -1.14312,-1.000442 -1.39096,-1.783363 -0.24785,-0.782922 -0.21185,-1.715522 1.01055,-4.617397 z"
       id="path16537"
       transform="translate(-5.2782046,-1.6728098)" />
    <path
       style="fill:none;fill-opacity:0.92718;fill-rule:evenodd;stroke:#313244;stroke-width:1;stroke-dasharray:none;stroke-opacity:1"
       d="m 135.98798,121.70727 c 0.22101,-0.0822 0.66302,-0.24673 2.50248,-2.88777 1.83946,-2.64104 5.07616,-7.75833 8.15042,-12.69576 3.07426,-4.93743 5.98572,-9.694418 7.83308,-12.689233 1.84736,-2.994816 2.63038,-4.227072 3.36715,-4.981276 0.73677,-0.754203 1.4272,-1.030261 1.83731,-0.738467 0.41011,0.291794 0.53985,1.151401 -0.19606,3.744097 -0.73591,2.592695 -2.33739,6.918172 -6.02353,14.060099 -3.68614,7.14193 -9.45648,17.09943 -13.07831,22.80812 -3.62184,5.70869 -5.09473,7.16786 -6.41879,7.81632 -1.32407,0.64845 -2.49918,0.48613 -3.38913,0.0592 -0.88995,-0.42697 -1.49466,-1.11855 -1.99193,-1.88904 -0.49728,-0.77049 -0.88707,-1.61981 -1.33919,-2.07335 -0.45213,-0.45355 -0.96652,-0.51126 -1.81503,0.59876 -0.84852,1.11002 -2.03105,3.38764 -3.86526,7.34499 -1.83421,3.95735 -4.31993,9.59408 -5.90919,13.01123 -1.58926,3.41715 -2.28195,4.61451 -2.89899,5.12009 -0.61704,0.50558 -1.15828,0.31926 -1.4938,-0.1443 -0.33552,-0.46355 -0.46526,-1.20428 -0.38781,-2.22856 0.0774,-1.02427 0.36207,-2.33197 1.14343,-4.57171 0.78135,-2.23975 2.05933,-5.41127 3.71349,-9.08341 1.65416,-3.67214 3.68434,-7.84452 5.96934,-12.01856 2.285,-4.17405 4.82468,-8.34951 6.46787,-10.4879 1.64319,-2.13839 2.38982,-2.23964 3.39649,-1.56172 1.00668,0.67791 2.27324,2.13487 3.01739,2.8598 0.74415,0.72492 0.96586,0.71776 1.07671,0.71417 0.11085,-0.004 0.11085,-0.004 0.33186,-0.0858 z"
       id="path16538"
       transform="translate(-5.2782046,-1.6728098)" />
    <path
       style="fill:none;fill-opacity:0.92718;fill-rule:evenodd;stroke:#313244;stroke-width:1;stroke-dasharray:none;stroke-opacity:1"
       d="m 96.272344,124.79895 c 2.571657,-3.58636 3.694577,-5.401 5.298126,-8.02418 1.60356,-2.62318 3.68766,-6.05476 4.94982,-8.02661 1.26217,-1.97185 1.70235,-2.4839 2.10211,-2.85222 0.39977,-0.36832 0.75909,-0.5929 1.02859,-0.65578 0.2695,-0.0629 0.44917,0.0359 0.60638,0.16619 0.15721,0.13026 0.29196,0.29196 0.32789,0.79055 0.0359,0.49858 -0.0269,1.33402 -0.45401,2.90497 -0.42706,1.57096 -1.21826,3.87733 -2.5232,6.83339 -1.30495,2.95606 -3.12355,6.56163 -4.87487,9.98761 -1.75133,3.42597 -3.435269,6.67214 -5.736918,10.15979 -2.301649,3.48765 -5.220846,7.21655 -9.099029,12.27736 -3.878183,5.06082 -8.715099,11.45322 -12.92355,17.25982 -4.208451,5.8066 -7.788195,11.02706 -10.228023,14.70279 -2.439828,3.67572 -3.73962,5.80653 -4.645232,7.03177 -0.905613,1.22523 -1.417004,1.54485 -1.907104,1.50223 -0.4901,-0.0426 -0.958875,-0.44747 -1.022797,-1.39571 -0.06392,-0.94824 0.277006,-2.4398 0.70318,-4.283 0.426175,-1.84321 0.937566,-4.03793 2.066931,-6.55235 1.129365,-2.51443 2.87662,-5.34839 5.401704,-9.25854 2.525084,-3.91015 5.827824,-8.89622 9.343753,-13.78655 3.51593,-4.89034 7.24483,-9.68464 11.119553,-14.76092 3.874724,-5.07629 7.89504,-10.43426 10.466696,-14.02061 z"
       id="path16539"
       transform="translate(-5.2782046,-1.6728098)" />
    <path
       style="fill:none;fill-opacity:0.92718;fill-rule:evenodd;stroke:#313244;stroke-width:1;stroke-dasharray:none;stroke-opacity:1"
       d="m 30.430861,36.685426 c 0.922148,-2.285322 2.766442,-6.855965 4.036072,-9.154652 1.26963,-2.298687 1.964568,-2.325416 2.940185,-1.095862 0.975618,1.229554 2.231852,3.715293 3.26899,5.431008 1.037138,1.715715 1.855106,2.6613 3.814444,2.501759 1.959339,-0.159542 5.05981,-1.42419 9.560583,-5.050874 4.500773,-3.626684 10.401316,-9.614977 13.540467,-12.689104 3.13915,-3.074126 3.516556,-3.233736 4.423808,-3.246701 0.907253,-0.01296 2.344288,0.120713 3.91505,0.688864 1.570761,0.568152 3.275151,1.570734 4.987948,3.099724 1.712797,1.52899 3.433897,3.584284 4.478279,4.611952 1.044381,1.027668 1.411995,1.027668 2.138893,0.45116 0.726897,-0.576508 1.813028,-1.729478 3.308597,-3.116428 1.495568,-1.38695 3.400475,-3.007792 5.12998,-3.876715 1.729505,-0.868924 3.283508,-0.985892 5.104923,-0.626617 1.82142,0.359274 3.91013,1.194758 6.83443,3.250125 2.92429,2.055368 6.68398,5.330474 10.52733,9.056853 3.84334,3.72638 7.77013,7.903812 10.66934,10.485523 2.89921,2.581712 4.7707,3.567587 6.0156,4.119019 1.24491,0.551432 1.86317,0.6684 2.59006,0.593202 0.7269,-0.0752 1.56238,-0.342553 2.62348,-0.843862 1.0611,-0.501309 2.34775,-1.236537 3.64279,-2.397901 1.29504,-1.161363 2.5984,-2.748788 3.47664,-3.845766 0.87824,-1.096978 1.33132,-1.70345 1.78195,-1.86859 0.45063,-0.165141 0.89877,0.111067 0.98136,0.932342 0.0826,0.821275 -0.20037,2.187544 -0.86824,4.182457 -0.66786,1.994913 -1.72058,4.61834 -3.64226,7.475788 -1.92168,2.857447 -4.7122,5.948743 -6.78426,7.686592 -2.07206,1.73785 -3.42555,2.122174 -5.44749,2.013552 -2.02194,-0.108622 -4.71221,-0.710173 -6.64223,-1.478844 -1.93002,-0.768672 -3.0997,-1.704415 -5.80973,-4.384914 -2.71004,-2.680498 -6.96016,-7.105473 -10.24818,-10.328613 -3.28802,-3.22314 -5.61355,-5.244063 -7.52392,-6.64924 -1.91037,-1.405178 -3.405381,-2.194458 -4.879805,-2.68937 -1.474425,-0.494912 -2.92817,-0.695428 -4.119523,-0.720949 -1.191354,-0.02552 -2.120231,0.123951 -3.176454,0.635581 -1.056224,0.511629 -2.239667,1.385357 -3.430684,3.110154 -1.191016,1.724797 -2.389461,4.300454 -3.430109,5.673354 -1.040648,1.372901 -1.92337,1.542874 -2.701312,0.770226 -0.777943,-0.772648 -1.45101,-2.487825 -2.457083,-4.248754 -1.006072,-1.760929 -2.345028,-3.567397 -3.796767,-5.248299 -1.45174,-1.680901 -3.016085,-3.236031 -4.352342,-3.80908 -1.336257,-0.573049 -2.444266,-0.163948 -3.357289,0.213766 -0.913023,0.377715 -1.63095,0.723998 -3.952537,3.118767 -2.321588,2.394768 -6.246558,6.837735 -9.577971,9.954796 -3.331413,3.117061 -6.068926,4.90788 -8.189676,6.070674 -2.120751,1.162793 -3.624625,1.697504 -5.237162,1.705854 -1.612536,0.0083 -3.333637,-0.509652 -4.645384,-1.30339 -1.311748,-0.793737 -2.214072,-1.863159 -3.219675,-3.054668 -1.005603,-1.191509 -2.114422,-2.505032 -2.668842,-3.161807 -0.554421,-0.656774 -0.554421,-0.656771 0.367726,-2.942092 z"
       id="path16540"
       transform="translate(-5.2782046,-1.6728098)" />
    <path
       style="fill:#7199ee;fill-opacity:0.92718;fill-rule:evenodd;stroke:#313244;stroke-width:0.198114;stroke-dasharray:none;stroke-opacity:1"
       d="m 66.811095,12.00251 c -1.666068,0.18912 -2.589006,1.910801 -3.857798,2.818862 -6.057618,5.565356 -11.535209,11.936082 -18.624693,16.246656 -2.087934,1.096963 -4.581437,2.50981 -6.975682,1.623806 -1.945593,-1.187548 -2.720468,-3.548308 -3.953467,-5.357633 -0.769532,-0.983976 -1.162476,-2.553772 -2.403193,-3.028142 -1.222114,0.464758 -1.503674,2.051403 -2.178558,3.048249 -1.47324,3.199385 -3.018803,6.413691 -4.054668,9.77767 1.043581,1.990898 2.816789,3.541155 4.308265,5.208956 2.459841,2.911989 6.96765,3.605741 10.246168,1.703524 5.802276,-2.741066 10.121861,-7.607679 14.58845,-12.056515 2.484669,-2.343215 4.56342,-5.162907 7.358382,-7.153323 1.66315,-1.069072 3.959663,-1.367273 5.567689,-0.01625 3.970535,3.085595 6.637393,7.439997 9.031463,11.784261 0.343903,0.679248 1.157815,1.778466 1.966935,1.007219 2.212762,-2.156995 3.129891,-5.289129 5.207059,-7.54534 1.391334,-1.673164 3.441556,-2.990165 5.698473,-2.706341 4.557829,-0.273916 8.579531,2.482909 11.87327,5.383195 6.559,5.815285 12.49302,12.347444 19.03322,18.200526 2.92991,1.746543 6.42484,2.60297 9.82791,2.486866 3.15084,-0.370673 5.2043,-3.15821 7.30953,-5.227025 3.85919,-4.282738 6.95591,-9.527737 7.82836,-15.290112 0.21389,-0.538861 -0.25083,-1.561933 -0.83657,-0.884546 -2.72832,3.077346 -5.32987,6.613802 -9.32178,8.123818 -1.84686,0.961617 -4.039,0.453937 -5.75729,-0.576156 -4.2313,-2.371069 -7.42749,-6.14205 -10.94274,-9.406601 -5.41297,-5.174398 -10.63858,-10.676148 -16.92898,-14.807366 -2.6711,-1.680175 -6.086621,-2.956554 -9.209573,-1.866988 -3.812963,1.682998 -6.390892,5.123239 -9.667324,7.55308 C 80.82437,21.659325 80.09566,20.085894 79.303261,19.586384 76.126574,16.458291 72.870656,12.64671 68.147587,12.121687 67.70493,12.060181 67.259632,11.986453 66.811095,12.00251 Z"
       id="path16541" />
    <path
       style="fill:#f7768e;fill-opacity:0.92718;fill-rule:evenodd;stroke:#313244;stroke-width:0.198114;stroke-dasharray:none;stroke-opacity:1"
       d="m 72.87484,36.749294 c -1.46333,0.878816 -2.336242,2.533804 -3.472404,3.786988 -8.356147,10.818275 -16.006651,22.209279 -22.519458,34.234359 -1.649873,2.733359 -1.558531,6.044211 -1.271197,9.108788 0.204269,2.355416 2.71521,3.355785 4.69475,3.858185 4.100186,0.630952 7.944098,-1.606075 11.343937,-3.603191 8.684671,-5.539344 16.242332,-12.674036 23.221996,-20.203943 1.611535,-1.964663 3.589531,-3.790543 4.547182,-6.185789 0.353308,-1.218169 -1.297071,-2.06576 -2.205175,-1.255622 -3.10399,2.142444 -5.568614,5.077619 -8.573157,7.357284 -4.293115,3.382782 -8.755146,6.61945 -13.555788,9.255167 -2.576302,1.340866 -5.629083,1.644517 -8.464125,1.187202 -1.292052,-0.365302 -2.505089,-1.313543 -2.486093,-2.779009 0.05289,-2.903687 1.715709,-5.424772 2.972643,-7.952283 4.765291,-8.457338 10.987635,-15.975631 16.054386,-24.238076 0.41251,-0.67375 0.919548,-2.429295 -0.287497,-2.57006 z"
       id="path16542" />
    <path
       style="fill:#f7768e;fill-opacity:0.92718;fill-rule:evenodd;stroke:#313244;stroke-width:0.198114;stroke-dasharray:none;stroke-opacity:1"
       d="m 104.47821,103.92411 c -1.32907,0.41606 -1.87451,1.98319 -2.71168,2.97597 -4.266329,6.6802 -8.290883,13.52057 -13.075667,19.85125 -8.94357,12.22936 -18.638899,23.92212 -26.802966,36.70855 -3.561842,5.53972 -7.585108,11.07678 -8.893676,17.66894 -0.278201,1.69627 -1.07171,3.48257 -0.633422,5.20474 0.187476,0.83715 1.112068,0.60787 1.430519,-0.001 4.137167,-5.44381 7.645631,-11.34291 11.647481,-16.88401 7.791606,-11.19947 16.323329,-21.86291 24.373861,-32.87487 4.869528,-6.7546 8.288782,-14.39314 11.95252,-21.83174 1.39585,-3.24371 2.89391,-6.57415 3.23463,-10.12387 0.036,-0.33421 -0.11478,-0.73945 -0.5216,-0.69379 z"
       id="path16543" />
    <path
       style="fill:#f7768e;fill-opacity:0.92718;fill-rule:evenodd;stroke:#313244;stroke-width:0.198114;stroke-dasharray:none;stroke-opacity:1"
       d="m 193.47687,5.0820775 c -3.77737,0.2010637 -6.52706,3.3273847 -8.71197,6.0865755 -3.79644,5.103162 -6.93175,10.75291 -9.0494,16.755535 -0.66633,1.453432 -0.0995,3.434956 1.51567,3.931857 1.82096,0.421687 2.9422,-1.598967 3.58345,-2.982152 1.33567,-2.658233 1.44597,-5.980404 3.6237,-8.157095 1.63684,-1.461431 3.98323,-1.163828 5.99216,-0.963869 2.20842,0.766145 3.76181,2.726532 5.10298,4.55197 3.02914,5.14809 2.96555,11.565632 1.76487,17.259188 -2.80036,13.763044 -6.7024,27.301236 -10.37488,40.859596 -4.5253,16.225692 -9.29569,32.559557 -10.55477,49.435987 0.0649,1.17962 -0.33734,2.69115 0.49876,3.6593 0.93004,0.0798 1.11801,-1.29169 1.55125,-1.89485 2.50384,-5.71703 3.48694,-11.94258 4.96704,-17.96954 2.90426,-13.42704 6.19539,-26.773359 10.13829,-39.930777 3.87491,-13.518161 8.14817,-26.936617 11.34944,-40.636916 1.33672,-6.250565 2.44727,-12.783286 1.20567,-19.140679 C 204.57327,10.528319 199.84118,5.8854707 194.19,5.1025854 c -0.23716,-0.019411 -0.47526,-0.025789 -0.71313,-0.020508 z"
       id="path16544" />
    <path
       style="fill:#bb9af7;fill-opacity:0.92718;fill-rule:evenodd;stroke:#313244;stroke-width:0.198114;stroke-dasharray:none;stroke-opacity:1"
       d="m 153.79727,86.324508 c -1.35587,0.59621 -1.95221,2.198068 -2.84711,3.296734 -6.20552,9.641546 -11.92627,19.602628 -18.48492,29.013578 -0.62073,0.74673 -1.55933,2.34219 -2.67647,1.42626 -1.56161,-1.0431 -2.59088,-2.88637 -4.37669,-3.56178 -1.37974,0.1128 -2.03928,1.68412 -2.86174,2.60854 -5.14142,7.64024 -9.32364,15.90021 -12.99646,24.33369 -1.3155,3.41716 -3.08067,6.75825 -3.57047,10.42423 -0.0216,0.88221 -0.45446,2.71133 0.90892,2.73451 1.32067,-0.6492 1.65173,-2.36623 2.3913,-3.53122 3.45115,-7.05403 6.29432,-14.42898 10.1488,-21.26169 0.49739,-0.85631 1.49402,-2.34403 2.62372,-1.48616 1.4122,1.57995 2.40192,4.22857 4.86965,4.33103 2.54048,-0.20844 4.05476,-2.67169 5.46553,-4.5009 6.09554,-9.02044 11.40499,-18.55443 16.3969,-28.22186 2.24901,-4.603989 4.56763,-9.293286 5.57281,-14.351275 0.0585,-0.447752 0.0887,-1.271588 -0.56377,-1.253687 z"
       id="path16545" />
    <path
       style="fill:#9ece6a;fill-opacity:0.92718;fill-rule:evenodd;stroke:#313244;stroke-width:0.198114;stroke-dasharray:none;stroke-opacity:1"
       d="m 172.20055,30.415464 c -1.5674,1.405258 -2.54044,3.41535 -3.84804,5.066823 -2.07255,2.853286 -4.15759,6.127598 -7.5017,7.570269 -2.37333,0.900052 -5.28827,1.689392 -7.52522,0.0081 -1.3919,-0.786074 -2.34068,-2.198366 -3.74675,-2.912502 -0.85954,0.6377 -1.02486,1.98444 -1.60187,2.883675 -1.4158,3.310698 -3.26526,6.658959 -3.34129,10.34118 0.21044,2.504738 2.91303,3.721748 5.03061,4.329091 4.08651,1.027696 7.91828,-1.600036 10.90862,-4.078346 5.57471,-4.783562 8.67836,-11.711459 11.15643,-18.467603 0.38212,-1.45538 1.21083,-2.971339 0.93431,-4.499649 -0.0832,-0.168667 -0.27686,-0.27815 -0.4651,-0.241064 z"
       id="path16546" />
    <path
       style="fill:#bb9af7;fill-opacity:0.92718;fill-rule:evenodd;stroke:#313244;stroke-width:0.198114;stroke-dasharray:none;stroke-opacity:1"
       d="m 99.615917,49.204912 c -2.547446,1.707158 -4.686448,4.005516 -6.543165,6.429791 -0.920995,1.558251 -2.465657,3.599951 -1.319855,5.431098 2.353903,3.254794 6.168386,5.491958 7.494975,9.461126 2.370708,5.796302 1.693788,12.211741 2.002868,18.335524 0.21816,0.972994 -0.34873,2.452962 0.6253,3.106746 1.28639,0.108499 2.24824,-1.179774 3.01813,-2.048851 3.00554,-4.313293 3.91447,-9.703874 4.35759,-14.840289 0.33242,-6.535198 -0.29876,-13.359373 -3.23352,-19.296769 -1.37124,-2.378321 -3.18623,-4.577952 -5.39512,-6.215813 -0.33756,-0.126376 -0.61452,-0.481168 -1.007203,-0.362563 z"
       id="path16547" />
  </g>
</svg>
